<svg width="18" height="16" viewBox="0 0 18 16" fill="none" xmlns="http://www.w3.org/2000/svg">
<g clip-path="url(#clip0_78_319)">
<path d="M3 0C3.35938 0 3.66875 0.255938 3.7375 0.609688L3.78437 1H16.9312C17.5656 1 18.0719 1.63281 17.8937 2.27063L16.2062 8.27188C16.0844 8.70313 15.6906 9 15.2437 9H5.33437L5.62187 10.5H15.25C15.6656 10.5 16 10.8344 16 11.25C16 11.6656 15.6656 12 15.25 12H4.97188C4.64063 12 4.33125 11.7438 4.2625 11.3906L2.37937 1.5H0.75C0.335938 1.5 0 1.16406 0 0.75C0 0.335938 0.335938 0 0.75 0H3ZM8.5 5.625H9.875V7C9.875 7.34375 10.1281 7.625 10.5 7.625C10.8438 7.625 11.125 7.34375 11.125 7V5.625H12.5C12.8438 5.625 13.125 5.34375 13.125 5C13.125 4.62813 12.8438 4.375 12.5 4.375H11.125V3C11.125 2.65469 10.8438 2.375 10.5 2.375C10.1281 2.375 9.875 2.65469 9.875 3V4.375H8.5C8.12813 4.375 7.875 4.62813 7.875 5C7.875 5.34375 8.12813 5.625 8.5 5.625ZM4 14.5C4 13.6719 4.67188 13 5.5 13C6.32812 13 7 13.6719 7 14.5C7 15.3281 6.32812 16 5.5 16C4.67188 16 4 15.3281 4 14.5ZM16 14.5C16 15.3281 15.3281 16 14.5 16C13.6719 16 13 15.3281 13 14.5C13 13.6719 13.6719 13 14.5 13C15.3281 13 16 13.6719 16 14.5Z" fill="white"/>
</g>
<defs>
<clipPath id="clip0_78_319">
<rect width="18" height="16" fill="white"/>
</clipPath>
</defs>
</svg>
