<svg width="30" height="24" viewBox="0 0 30 24" fill="none" xmlns="http://www.w3.org/2000/svg">
<g clip-path="url(#clip0_83_557)">
<path d="M15.2391 16.4766L10.5844 12.825C10.9736 14.9138 12.7997 16.4986 15.0009 16.4986C15.0844 16.5 15.1594 16.4813 15.2391 16.4766ZM15 18.75C11.2734 18.75 8.25001 15.7256 8.25001 12.0422C8.25001 11.724 8.3011 11.4197 8.30157 11.1131L3.81002 7.51875C2.97705 8.63203 2.25049 9.86438 1.66267 11.2027C1.57314 11.4094 1.45783 11.7656 1.45783 12C1.45783 12.2333 1.5311 12.5906 1.62044 12.7983C4.16341 18.5827 9.19543 22.4592 14.9564 22.4592C17.0873 22.4592 19.1174 21.9206 20.961 20.9527L17.4689 18.2152C16.6922 18.5672 15.8484 18.75 15 18.75ZM29.5687 21.9891L24.7172 18.187C26.1876 16.6889 27.4251 14.8706 28.3364 12.8386C28.4257 12.6309 28.499 12.2728 28.499 12.0403C28.499 11.8071 28.4258 11.4497 28.3364 11.242C25.7934 5.45766 20.7614 1.58109 15.0005 1.58109C12.0619 1.58109 9.31923 2.60953 6.99423 4.37578L1.81924 0.239813C1.61299 0.0787031 1.3683 0 1.12642 0C0.792675 0 0.461222 0.148031 0.240066 0.430734C-0.143699 0.920109 -0.0585269 1.62745 0.430754 2.01042L28.1385 23.7182C28.6307 24.1028 29.3371 24.0151 29.7177 23.5273C30.1453 23.0812 30.0562 22.3734 29.5687 21.9891ZM21.7078 12C21.7078 13.1648 21.3935 14.2491 20.8664 15.2002L19.0594 13.7831C19.305 13.2356 19.4576 12.6384 19.4576 11.9981C19.4576 9.55594 17.442 7.49813 14.9998 7.49813C14.8919 7.4995 14.7384 7.51892 14.6032 7.53402C14.85 7.96875 14.9578 8.46563 14.9578 9C14.9578 9.47672 14.8378 9.92203 14.6381 10.32L10.4813 7.02656C11.6747 5.93062 13.2525 5.24859 15.0009 5.24859C18.7266 5.25 21.7078 8.27812 21.7078 12Z" fill="black"/>
</g>
<defs>
<clipPath id="clip0_83_557">
<rect width="30" height="24" fill="white"/>
</clipPath>
</defs>
</svg>
