<svg width="20" height="20" viewBox="0 0 20 20" fill="none" xmlns="http://www.w3.org/2000/svg">
<path d="M19.8785 9.3707C17.9965 5.06055 14.2674 2.125 10 2.125C5.73264 2.125 2.00313 5.06406 0.120451 9.3707C0.0542708 9.55703 0 9.82422 0 10C0 10.175 0.0542361 10.443 0.120451 10.5987C2.00417 14.9395 5.73264 17.875 10 17.875C14.2674 17.875 17.9965 14.9366 19.8785 10.6293C19.9444 10.443 20 10.1441 20 10C20 9.82422 19.9444 9.55703 19.8785 9.3707ZM15 10C15 12.7932 12.7615 15.0625 10.0035 15.0625C7.24306 15.0625 5 12.7949 5 10C5 7.20508 7.23958 4.9375 10 4.9375C12.7604 4.9375 15 7.20508 15 10ZM10 6.625C9.92014 6.625 9.80556 6.63906 9.70486 6.65313C9.88889 6.97656 10 7.34922 10 7.75C10 8.99277 9.00521 10 7.77778 10C7.38194 10 6.98264 9.88398 6.69097 9.70117C6.68056 9.80664 6.66667 9.91563 6.66667 10C6.66667 11.8316 8.15972 13.375 10 13.375C11.8403 13.375 13.3333 11.8636 13.3333 10.0004C13.3333 8.13707 11.809 6.625 10 6.625Z" fill="#333333"/>
</svg>
